# xmcd CD database file
#
# Track frame offsets:
#	150
#	12598
#	23704
#	33548
#	46575
#	59563
#	71867
#	83254
#	96992
#	110747
#	125630
#	138171
#	151402
#	166047
#	177485
#	187683
#	201587
#	214465
#	227288
#	239495
#	251801
#	265228
#	276860
#
# Disc length: 3822 seconds
#
# Revision: 1
# Processed by: cddbd v1.5.2PL0 Copyright (c) Steve Scherf et al.
# Submitted via: CDex 1.51
#
DISCID=4b0eec17
DTITLE=Louis Armstrong - Chimes blues  (1923-1924) Cd 01
DYEAR=2006
DGENRE=Jazz
TTITLE0=Just gone
TTITLE1=Canal street blues
TTITLE2=Mandy Lee blues
TTITLE3=I'm going away to wear you off my mind
TTITLE4=Chimes blues
TTITLE5=Weather bird rag
TTITLE6=Dipper mouth blues
TTITLE7=Froggie Moore
TTITLE8=Snake rag
TTITLE9=Snake rag
TTITLE10=Sweet lovin' man
TTITLE11=High society rag
TTITLE12=Sobbin' blues
TTITLE13=Where did you stay last night
TTITLE14=Dipper mouth blues
TTITLE15=Jazzin' babies blues
TTITLE16=Mabel's dream (take 1)
TTITLE17=Mabel's dream (take 2)
TTITLE18=The southern stomps (take 1)
TTITLE19=The southern stomps (take 2)
TTITLE20=Riverside blues
TTITLE21=Zulus ball
TTITLE22=Workingman blues
EXTD=YEAR: 2006
EXTT0=
EXTT1=
EXTT2=
EXTT3=
EXTT4=
EXTT5=
EXTT6=
EXTT7=
EXTT8=
EXTT9=
EXTT10=
EXTT11=
EXTT12=
EXTT13=
EXTT14=
EXTT15=
EXTT16=
EXTT17=
EXTT18=
EXTT19=
EXTT20=
EXTT21=
EXTT22=
PLAYORDER=
